<svg width="377" height="55" viewBox="0 0 377 55" fill="none" xmlns="http://www.w3.org/2000/svg">
<path d="M14.0801 20.114C9.71162 20.114 6.27325 19.2233 3.76389 17.4398C1.25548 15.6568 0 13.3658 0 10.5659V28.9995H30.5506V20.114H14.0801Z" fill="#FF512D"/>
<path d="M9.58612 7.55987C8.62765 8.23786 8.14746 9.0925 8.14746 10.1236C8.14746 11.126 8.62765 11.9517 9.58612 12.5988C10.5459 13.2474 11.7491 13.5716 13.1949 13.5716H30.5508V6.54297H13.1949C11.7491 6.54297 10.5459 6.88205 9.58612 7.55987Z" fill="#F2F2F2"/>
<path d="M56.2307 13.5716C57.6766 13.5716 58.8797 13.2474 59.8394 12.5988C60.7979 11.9517 61.2781 11.1258 61.2781 10.1238C61.2781 9.09266 60.7979 8.23802 59.8394 7.55987C58.8797 6.88205 57.6766 6.54297 56.2307 6.54297H38.8748V13.5716H56.2307Z" fill="#999999"/>
<path d="M65.6613 17.44C63.1523 19.2234 59.7136 20.114 55.3453 20.114H38.8748V28.9997H69.4252V10.5659C69.4252 13.3658 68.1701 15.6568 65.6613 17.44Z" fill="#3FA9F5"/>
<path d="M3.78566 2.96183C6.3096 0.987487 9.74076 0 14.0801 0H0V10.5658C0 7.47099 1.26237 4.93664 3.78566 2.96183Z" fill="#333333"/>
<path d="M55.345 0.000488281C59.6843 0.000488281 63.1152 0.987975 65.6393 2.96231C68.1627 4.93713 69.4249 7.47148 69.4249 10.5663V0.000488281H55.345Z" fill="#FF512D"/>
<path d="M65.6394 2.96231C63.1155 0.987975 59.6846 0.000488281 55.3449 0.000488281H38.8748V6.54314H56.2304C57.6764 6.54314 58.8794 6.88222 59.8394 7.56004C60.7976 8.23819 61.2778 9.09267 61.2778 10.1241C61.2778 11.126 60.7976 11.9519 59.8394 12.599C58.8794 13.2476 57.6764 13.5718 56.2304 13.5718H38.8748V20.1144H55.3449C59.7134 20.1144 63.152 19.2237 65.661 17.4402C68.1701 15.6572 69.4251 13.3662 69.4251 10.5663C69.4251 7.47148 68.1627 4.93713 65.6394 2.96231Z" fill="#333333"/>
<path d="M3.76389 17.4397C6.27325 19.2232 9.71162 20.1138 14.0801 20.1138H30.5506V13.5713H13.1948C11.749 13.5713 10.5457 13.2469 9.58593 12.5985C8.62746 11.9512 8.14711 11.1255 8.14711 10.1235C8.14711 9.09235 8.62746 8.23771 9.58593 7.5594C10.5457 6.88189 11.749 6.54265 13.1948 6.54265H30.5506V0H14.0801C9.74108 0 6.30992 0.987487 3.78582 2.96167C1.26253 4.93664 0 7.47099 0 10.5657C0 13.3656 1.25532 15.6566 3.76389 17.4397Z" fill="#39B275"/>
<path d="M38.8745 13.5718V6.54314V0.000488281H30.5503V6.54314V13.5718V20.1144V28.9999H38.8745V20.1144V13.5718Z" fill="#BFCFD9"/>
<path d="M149.913 19.8687C151.298 18.7249 151.998 17.2789 151.998 15.5348C151.998 13.789 151.298 12.345 149.913 11.201C148.52 10.0568 146.781 9.48401 144.679 9.48401C142.585 9.48401 140.846 10.0568 139.454 11.201C138.069 12.345 137.368 13.789 137.368 15.5348C137.368 17.2789 138.069 18.7249 139.454 19.8687C140.846 21.0129 142.585 21.5839 144.679 21.5839C146.781 21.5839 148.52 21.0129 149.913 19.8687ZM153.889 7.84171C156.274 9.73148 157.473 12.2975 157.473 15.5348C157.473 18.7738 156.274 21.3364 153.889 23.2265C151.499 25.1179 148.431 26.0638 144.679 26.0638C140.934 26.0638 137.867 25.1179 135.477 23.2265C133.093 21.3364 131.893 18.7738 131.893 15.5348C131.893 12.2975 133.093 9.73148 135.477 7.84171C137.867 5.95178 140.934 5.00586 144.679 5.00586C148.431 5.00586 151.499 5.95178 153.889 7.84171Z" fill="#373737"/>
<path d="M165.275 10.2996V14.925H176.701C177.65 14.925 178.439 14.7116 179.068 14.2843C179.704 13.8589 180.017 13.3149 180.017 12.6556C180.017 11.9758 179.704 11.4149 179.068 10.9692C178.439 10.5235 177.65 10.2996 176.701 10.2996H165.275ZM176.112 5.99463C178.971 5.99463 181.225 6.64544 182.884 7.94355C184.551 9.24358 185.379 10.9097 185.379 12.947C185.379 14.7895 184.551 16.2962 182.901 17.4691C181.249 18.6419 178.986 19.2285 176.112 19.2285H165.275V25.0743H159.8V5.99463H176.112Z" fill="#373737"/>
<path d="M208.489 10.2996H193.182V25.0743H187.707V5.99463H213.972V25.0743H208.489V10.2996Z" fill="#373737"/>
<path d="M223.843 10.2996V14.925H235.26C236.21 14.925 237 14.7116 237.635 14.2843C238.263 13.8589 238.577 13.3149 238.577 12.6556C238.577 11.9758 238.263 11.4149 237.635 10.9692C237 10.5235 236.21 10.2996 235.26 10.2996H223.843ZM234.679 5.99463C237.531 5.99463 239.794 6.64544 241.453 7.94355C243.112 9.24358 243.94 10.9097 243.94 12.947C243.94 14.7895 243.118 16.2962 241.468 17.4691C239.818 18.6419 237.555 19.2285 234.679 19.2285H223.843V25.0743H218.369V5.99463H234.679Z" fill="#373737"/>
<path d="M109.292 10.2996V14.925H120.71C121.66 14.925 122.448 14.7116 123.085 14.2843C123.713 13.8589 124.027 13.3149 124.027 12.6556C124.027 11.9758 123.713 11.4149 123.085 10.9692C122.448 10.5235 121.66 10.2996 120.71 10.2996H109.292ZM120.129 5.99463C122.979 5.99463 125.234 6.64544 126.901 7.94355C128.559 9.24358 129.389 10.9097 129.389 12.947C129.389 14.7895 128.568 16.2962 126.918 17.4691C125.268 18.6419 123.005 19.2285 120.129 19.2285H109.292V25.0743H103.817V5.99463H120.129Z" fill="#373737"/>
<path d="M92.3917 10.2996C91.4411 10.2996 90.6519 10.5235 90.017 10.9692C89.3889 11.4149 89.0747 11.9758 89.0747 12.6556C89.0747 13.3149 89.3889 13.8589 90.017 14.2843C90.6519 14.7116 91.4411 14.925 92.3917 14.925H103.817V10.2996H92.3917ZM109.292 5.99463V25.0743H103.817V19.2285H92.9792C90.1053 19.2285 87.8423 18.6419 86.1921 17.4691C84.5404 16.2962 83.7119 14.7895 83.7119 12.947C83.7119 10.9097 84.5404 9.24358 86.2006 7.94355C87.866 6.64544 90.1203 5.99463 92.9792 5.99463H109.292Z" fill="#373737"/>
<path d="M265.615 19.8687C267 18.7249 267.701 17.2789 267.701 15.5348C267.701 13.789 267 12.345 265.615 11.201C264.23 10.0568 262.483 9.48401 260.389 9.48401C258.288 9.48401 256.55 10.0568 255.156 11.201C253.771 12.345 253.078 13.789 253.078 15.5348C253.078 17.2789 253.771 18.7249 255.156 19.8687C256.55 21.0129 258.288 21.5839 260.389 21.5839C262.483 21.5839 264.23 21.0129 265.615 19.8687ZM269.592 7.84171C271.984 9.73148 273.176 12.2975 273.176 15.5348C273.176 18.7738 271.984 21.3364 269.592 23.2265C267.202 25.1179 264.133 26.0638 260.389 26.0638C256.636 26.0638 253.569 25.1179 251.178 23.2265C248.795 21.3364 247.595 18.7738 247.595 15.5348C247.595 12.2975 248.795 9.73148 251.178 7.84171C253.569 5.95178 256.636 5.00586 260.389 5.00586C264.133 5.00586 267.202 5.95178 269.592 7.84171Z" fill="#373737"/>
<path d="M301.823 13.586V17.8912H281.727V20.7692H301.823V25.0743H276.252V5.99463H301.823V10.2996H281.727V13.586H301.823Z" fill="#373737"/>
<path d="M307.596 5.99463H313.08V25.0743H307.596V5.99463Z" fill="#373737"/>
<path d="M361.09 5.99463V9.71838H351.034V25.0743H345.56V9.71838H335.503V5.99463H361.09Z" fill="#373737"/>
<path d="M333.056 5.99463H326.503L320.729 13.586L312.998 13.542V17.8912H321.244L326.503 25.0743H333.056L325.157 15.3894L333.056 5.99463Z" fill="#373737"/>
<path d="M8.512 50L7.378 47.326H2.198L1.064 50H0.308L4.424 40.2H5.068L9.282 50H8.512ZM4.76 41.194L2.464 46.668H7.098L4.76 41.194ZM15.2677 42.286C16.3783 42.286 17.2977 42.6593 18.0257 43.406C18.7537 44.1527 19.1177 45.0907 19.1177 46.22C19.1177 47.3493 18.7537 48.2873 18.0257 49.034C17.2977 49.7807 16.3783 50.154 15.2677 50.154C14.577 50.154 13.947 50 13.3777 49.692C12.8177 49.384 12.365 48.9593 12.0197 48.418V52.674H11.3337V42.44H11.8377L11.9777 44.092C12.323 43.532 12.7803 43.0933 13.3497 42.776C13.9283 42.4493 14.5677 42.286 15.2677 42.286ZM15.2117 49.482C16.145 49.482 16.915 49.174 17.5217 48.558C18.1283 47.942 18.4317 47.1627 18.4317 46.22C18.4317 45.2773 18.1283 44.498 17.5217 43.882C16.915 43.266 16.145 42.958 15.2117 42.958C14.297 42.958 13.5317 43.2707 12.9157 43.896C12.2997 44.512 11.9917 45.2867 11.9917 46.22C11.9917 47.1533 12.2997 47.9327 12.9157 48.558C13.5317 49.174 14.297 49.482 15.2117 49.482ZM26.8116 50H26.0276L23.4796 46.5L20.9456 50H20.1756L23.0736 46.052L20.4416 42.44H21.2256L23.4936 45.562L25.7756 42.44H26.5456L23.8996 46.024L26.8116 50ZM34.2893 42.44H34.6813V50H34.0373V43.7L29.0953 50H28.6893V42.44H29.3473V48.712L34.2893 42.44ZM43.3779 42.44V43.07H40.3539V50H39.6819V43.07H36.6719V42.44H43.3779ZM51.9629 46.192C51.9629 46.2573 51.9582 46.346 51.9489 46.458H45.0889C45.1262 47.046 45.2802 47.5687 45.5509 48.026C45.8309 48.4833 46.2042 48.8427 46.6709 49.104C47.1375 49.356 47.6555 49.482 48.2249 49.482C48.8409 49.482 49.3869 49.3373 49.8629 49.048C50.3482 48.7493 50.7309 48.334 51.0109 47.802H51.7389C51.3935 48.558 50.9175 49.1413 50.3109 49.552C49.7042 49.9533 49.0089 50.154 48.2249 50.154C47.1329 50.154 46.2229 49.7807 45.4949 49.034C44.7669 48.278 44.4029 47.3353 44.4029 46.206C44.4029 45.0953 44.7669 44.1667 45.4949 43.42C46.2322 42.664 47.1422 42.286 48.2249 42.286C49.3169 42.286 50.2129 42.6593 50.9129 43.406C51.6129 44.1527 51.9629 45.0813 51.9629 46.192ZM48.2249 42.944C47.3849 42.944 46.6755 43.2147 46.0969 43.756C45.5182 44.288 45.1869 44.974 45.1029 45.814H51.2909C51.2535 45.394 51.1462 45.0067 50.9689 44.652C50.8009 44.288 50.5815 43.98 50.3109 43.728C50.0402 43.476 49.7229 43.2847 49.3589 43.154C49.0042 43.014 48.6262 42.944 48.2249 42.944ZM59.3659 50L56.3419 46.374H55.0259V50H54.3399V42.44H55.0259V45.73H56.3559L59.1139 42.44H59.9539L56.9439 46.052L60.2199 50H59.3659ZM67.6203 42.44V43.07H64.5963V50H63.9243V43.07H60.9143V42.44H67.6203ZM75.3161 42.44H76.0581L72.2781 50.546C71.9047 51.358 71.5221 51.9133 71.1301 52.212C70.7381 52.52 70.2201 52.674 69.5761 52.674H68.9461V52.058H69.5201C70.0427 52.058 70.4487 51.946 70.7381 51.722C71.0367 51.498 71.3401 51.05 71.6481 50.378L72.0541 49.552L68.5821 42.44H69.3241L72.4181 48.782L75.3161 42.44ZM82.0241 42.286C83.1348 42.286 84.0541 42.6593 84.7821 43.406C85.5101 44.1527 85.8741 45.0907 85.8741 46.22C85.8741 47.3493 85.5101 48.2873 84.7821 49.034C84.0541 49.7807 83.1348 50.154 82.0241 50.154C81.3335 50.154 80.7035 50 80.1341 49.692C79.5741 49.384 79.1215 48.9593 78.7761 48.418V52.674H78.0901V42.44H78.5941L78.7341 44.092C79.0795 43.532 79.5368 43.0933 80.1061 42.776C80.6848 42.4493 81.3241 42.286 82.0241 42.286ZM81.9681 49.482C82.9015 49.482 83.6715 49.174 84.2781 48.558C84.8848 47.942 85.1881 47.1627 85.1881 46.22C85.1881 45.2773 84.8848 44.498 84.2781 43.882C83.6715 43.266 82.9015 42.958 81.9681 42.958C81.0535 42.958 80.2881 43.2707 79.6721 43.896C79.0561 44.512 78.7481 45.2867 78.7481 46.22C78.7481 47.1533 79.0561 47.9327 79.6721 48.558C80.2881 49.174 81.0535 49.482 81.9681 49.482ZM93.7455 42.44H94.4175V50H93.7455V46.416H88.9575V50H88.2855V42.44H88.9575V45.758H93.7455V42.44ZM100.787 50.154C99.6579 50.154 98.7152 49.7807 97.9592 49.034C97.2032 48.2873 96.8252 47.3493 96.8252 46.22C96.8252 45.0907 97.1985 44.1527 97.9452 43.406C98.7012 42.6593 99.6439 42.286 100.773 42.286C101.912 42.286 102.855 42.6593 103.601 43.406C104.357 44.1527 104.735 45.0907 104.735 46.22C104.735 47.3493 104.357 48.2873 103.601 49.034C102.855 49.7807 101.917 50.154 100.787 50.154ZM100.787 49.482C101.403 49.482 101.959 49.342 102.453 49.062C102.948 48.782 103.335 48.3947 103.615 47.9C103.895 47.396 104.035 46.836 104.035 46.22C104.035 45.2773 103.727 44.498 103.111 43.882C102.495 43.266 101.721 42.958 100.787 42.958C100.162 42.958 99.6019 43.098 99.1072 43.378C98.6125 43.658 98.2252 44.05 97.9452 44.554C97.6652 45.0487 97.5252 45.604 97.5252 46.22C97.5252 47.1533 97.8332 47.9327 98.4492 48.558C99.0652 49.174 99.8445 49.482 100.787 49.482ZM106.851 46.43V45.772H111.233V46.43H106.851ZM117.239 50.154C116.138 50.154 115.214 49.7807 114.467 49.034C113.72 48.278 113.347 47.34 113.347 46.22C113.347 45.0907 113.716 44.1527 114.453 43.406C115.2 42.6593 116.128 42.286 117.239 42.286C118.088 42.286 118.83 42.5147 119.465 42.972C120.109 43.42 120.557 44.022 120.809 44.778H120.123C119.871 44.2087 119.488 43.7653 118.975 43.448C118.471 43.1213 117.892 42.958 117.239 42.958C116.324 42.958 115.564 43.2707 114.957 43.896C114.35 44.512 114.047 45.2867 114.047 46.22C114.047 47.144 114.35 47.9187 114.957 48.544C115.573 49.1693 116.334 49.482 117.239 49.482C117.883 49.482 118.457 49.3233 118.961 49.006C119.474 48.6793 119.866 48.222 120.137 47.634H120.837C120.566 48.4087 120.109 49.0247 119.465 49.482C118.821 49.93 118.079 50.154 117.239 50.154ZM128.584 42.44V43.07H125.56V50H124.888V43.07H121.878V42.44H128.584ZM134.488 42.286C135.598 42.286 136.518 42.6593 137.246 43.406C137.974 44.1527 138.338 45.0907 138.338 46.22C138.338 47.3493 137.974 48.2873 137.246 49.034C136.518 49.7807 135.598 50.154 134.488 50.154C133.797 50.154 133.167 50 132.598 49.692C132.038 49.384 131.585 48.9593 131.24 48.418V52.674H130.554V42.44H131.058L131.198 44.092C131.543 43.532 132 43.0933 132.57 42.776C133.148 42.4493 133.788 42.286 134.488 42.286ZM134.432 49.482C135.365 49.482 136.135 49.174 136.742 48.558C137.348 47.942 137.652 47.1627 137.652 46.22C137.652 45.2773 137.348 44.498 136.742 43.882C136.135 43.266 135.365 42.958 134.432 42.958C133.517 42.958 132.752 43.2707 132.136 43.896C131.52 44.512 131.212 45.2867 131.212 46.22C131.212 47.1533 131.52 47.9327 132.136 48.558C132.752 49.174 133.517 49.482 134.432 49.482ZM144.067 50.154C142.938 50.154 141.995 49.7807 141.239 49.034C140.483 48.2873 140.105 47.3493 140.105 46.22C140.105 45.0907 140.478 44.1527 141.225 43.406C141.981 42.6593 142.924 42.286 144.053 42.286C145.192 42.286 146.134 42.6593 146.881 43.406C147.637 44.1527 148.015 45.0907 148.015 46.22C148.015 47.3493 147.637 48.2873 146.881 49.034C146.134 49.7807 145.196 50.154 144.067 50.154ZM144.067 49.482C144.683 49.482 145.238 49.342 145.733 49.062C146.228 48.782 146.615 48.3947 146.895 47.9C147.175 47.396 147.315 46.836 147.315 46.22C147.315 45.2773 147.007 44.498 146.391 43.882C145.775 43.266 145 42.958 144.067 42.958C143.442 42.958 142.882 43.098 142.387 43.378C141.892 43.658 141.505 44.05 141.225 44.554C140.945 45.0487 140.805 45.604 140.805 46.22C140.805 47.1533 141.113 47.9327 141.729 48.558C142.345 49.174 143.124 49.482 144.067 49.482ZM156.025 42.44H156.417V50H155.773V43.7L150.831 50H150.425V42.44H151.083V48.712L156.025 42.44ZM165.113 42.44V43.07H162.089V50H161.417V43.07H158.407V42.44H165.113ZM173.698 46.192C173.698 46.2573 173.694 46.346 173.684 46.458H166.824C166.862 47.046 167.016 47.5687 167.286 48.026C167.566 48.4833 167.94 48.8427 168.406 49.104C168.873 49.356 169.391 49.482 169.96 49.482C170.576 49.482 171.122 49.3373 171.598 49.048C172.084 48.7493 172.466 48.334 172.746 47.802H173.474C173.129 48.558 172.653 49.1413 172.046 49.552C171.44 49.9533 170.744 50.154 169.96 50.154C168.868 50.154 167.958 49.7807 167.23 49.034C166.502 48.278 166.138 47.3353 166.138 46.206C166.138 45.0953 166.502 44.1667 167.23 43.42C167.968 42.664 168.878 42.286 169.96 42.286C171.052 42.286 171.948 42.6593 172.648 43.406C173.348 44.1527 173.698 45.0813 173.698 46.192ZM169.96 42.944C169.12 42.944 168.411 43.2147 167.832 43.756C167.254 44.288 166.922 44.974 166.838 45.814H173.026C172.989 45.394 172.882 45.0067 172.704 44.652C172.536 44.288 172.317 43.98 172.046 43.728C171.776 43.476 171.458 43.2847 171.094 43.154C170.74 43.014 170.362 42.944 169.96 42.944ZM177.074 42.44H181.736V50H181.064V43.042H177.662L177.172 47.522C177.079 48.4367 176.855 49.0807 176.5 49.454C176.146 49.8273 175.6 50.014 174.862 50.014H174.736V49.37H174.89C175.404 49.37 175.782 49.2347 176.024 48.964C176.276 48.684 176.44 48.2127 176.514 47.55L177.074 42.44ZM187.748 45.058C188.485 45.058 189.097 45.2913 189.582 45.758C190.067 46.2153 190.31 46.808 190.31 47.536C190.31 48.264 190.067 48.8567 189.582 49.314C189.097 49.7713 188.485 50 187.748 50H184.808V42.44H185.48V45.058H187.748ZM187.664 49.384C188.233 49.384 188.7 49.2113 189.064 48.866C189.428 48.5207 189.61 48.0773 189.61 47.536C189.61 46.9947 189.428 46.5513 189.064 46.206C188.7 45.8513 188.233 45.674 187.664 45.674H185.48V49.384H187.664ZM197.989 42.44H198.661V50H197.989V46.416H193.201V50H192.529V42.44H193.201V45.758H197.989V42.44ZM205.03 50.154C203.901 50.154 202.958 49.7807 202.202 49.034C201.446 48.2873 201.068 47.3493 201.068 46.22C201.068 45.0907 201.442 44.1527 202.188 43.406C202.944 42.6593 203.887 42.286 205.016 42.286C206.155 42.286 207.098 42.6593 207.844 43.406C208.6 44.1527 208.978 45.0907 208.978 46.22C208.978 47.3493 208.6 48.2873 207.844 49.034C207.098 49.7807 206.16 50.154 205.03 50.154ZM205.03 49.482C205.646 49.482 206.202 49.342 206.696 49.062C207.191 48.782 207.578 48.3947 207.858 47.9C208.138 47.396 208.278 46.836 208.278 46.22C208.278 45.2773 207.97 44.498 207.354 43.882C206.738 43.266 205.964 42.958 205.03 42.958C204.405 42.958 203.845 43.098 203.35 43.378C202.856 43.658 202.468 44.05 202.188 44.554C201.908 45.0487 201.768 45.604 201.768 46.22C201.768 47.1533 202.076 47.9327 202.692 48.558C203.308 49.174 204.088 49.482 205.03 49.482ZM218.304 46.192C218.304 46.2573 218.3 46.346 218.29 46.458H211.43C211.468 47.046 211.622 47.5687 211.892 48.026C212.172 48.4833 212.546 48.8427 213.012 49.104C213.479 49.356 213.997 49.482 214.566 49.482C215.182 49.482 215.728 49.3373 216.204 49.048C216.69 48.7493 217.072 48.334 217.352 47.802H218.08C217.735 48.558 217.259 49.1413 216.652 49.552C216.046 49.9533 215.35 50.154 214.566 50.154C213.474 50.154 212.564 49.7807 211.836 49.034C211.108 48.278 210.744 47.3353 210.744 46.206C210.744 45.0953 211.108 44.1667 211.836 43.42C212.574 42.664 213.484 42.286 214.566 42.286C215.658 42.286 216.554 42.6593 217.254 43.406C217.954 44.1527 218.304 45.0813 218.304 46.192ZM214.566 42.944C213.726 42.944 213.017 43.2147 212.438 43.756C211.86 44.288 211.528 44.974 211.444 45.814H217.632C217.595 45.394 217.488 45.0067 217.31 44.652C217.142 44.288 216.923 43.98 216.652 43.728C216.382 43.476 216.064 43.2847 215.7 43.154C215.346 43.014 214.968 42.944 214.566 42.944ZM224.957 42.44H231.145V50H230.459V43.07H225.643V50H224.957V42.44ZM238.129 42.286C239.24 42.286 240.159 42.6593 240.887 43.406C241.615 44.1527 241.979 45.0907 241.979 46.22C241.979 47.3493 241.615 48.2873 240.887 49.034C240.159 49.7807 239.24 50.154 238.129 50.154C237.438 50.154 236.808 50 236.239 49.692C235.679 49.384 235.226 48.9593 234.881 48.418V52.674H234.195V42.44H234.699L234.839 44.092C235.184 43.532 235.642 43.0933 236.211 42.776C236.79 42.4493 237.429 42.286 238.129 42.286ZM238.073 49.482C239.006 49.482 239.776 49.174 240.383 48.558C240.99 47.942 241.293 47.1627 241.293 46.22C241.293 45.2773 240.99 44.498 240.383 43.882C239.776 43.266 239.006 42.958 238.073 42.958C237.158 42.958 236.393 43.2707 235.777 43.896C235.161 44.512 234.853 45.2867 234.853 46.22C234.853 47.1533 235.161 47.9327 235.777 48.558C236.393 49.174 237.158 49.482 238.073 49.482ZM247.708 50.154C246.579 50.154 245.636 49.7807 244.88 49.034C244.124 48.2873 243.746 47.3493 243.746 46.22C243.746 45.0907 244.12 44.1527 244.866 43.406C245.622 42.6593 246.565 42.286 247.694 42.286C248.833 42.286 249.776 42.6593 250.522 43.406C251.278 44.1527 251.656 45.0907 251.656 46.22C251.656 47.3493 251.278 48.2873 250.522 49.034C249.776 49.7807 248.838 50.154 247.708 50.154ZM247.708 49.482C248.324 49.482 248.88 49.342 249.374 49.062C249.869 48.782 250.256 48.3947 250.536 47.9C250.816 47.396 250.956 46.836 250.956 46.22C250.956 45.2773 250.648 44.498 250.032 43.882C249.416 43.266 248.642 42.958 247.708 42.958C247.083 42.958 246.523 43.098 246.028 43.378C245.534 43.658 245.146 44.05 244.866 44.554C244.586 45.0487 244.446 45.604 244.446 46.22C244.446 47.1533 244.754 47.9327 245.37 48.558C245.986 49.174 246.766 49.482 247.708 49.482ZM260.982 46.192C260.982 46.2573 260.978 46.346 260.968 46.458H254.108C254.146 47.046 254.3 47.5687 254.57 48.026C254.85 48.4833 255.224 48.8427 255.69 49.104C256.157 49.356 256.675 49.482 257.244 49.482C257.86 49.482 258.406 49.3373 258.882 49.048C259.368 48.7493 259.75 48.334 260.03 47.802H260.758C260.413 48.558 259.937 49.1413 259.33 49.552C258.724 49.9533 258.028 50.154 257.244 50.154C256.152 50.154 255.242 49.7807 254.514 49.034C253.786 48.278 253.422 47.3353 253.422 46.206C253.422 45.0953 253.786 44.1667 254.514 43.42C255.252 42.664 256.162 42.286 257.244 42.286C258.336 42.286 259.232 42.6593 259.932 43.406C260.632 44.1527 260.982 45.0813 260.982 46.192ZM257.244 42.944C256.404 42.944 255.695 43.2147 255.116 43.756C254.538 44.288 254.206 44.974 254.122 45.814H260.31C260.273 45.394 260.166 45.0067 259.988 44.652C259.82 44.288 259.601 43.98 259.33 43.728C259.06 43.476 258.742 43.2847 258.378 43.154C258.024 43.014 257.646 42.944 257.244 42.944ZM268.385 50L265.361 46.374H264.045V50H263.359V42.44H264.045V45.73H265.375L268.133 42.44H268.973L265.963 46.052L269.239 50H268.385ZM276.64 42.44V43.07H273.616V50H272.944V43.07H269.934V42.44H276.64ZM284.21 42.44H284.602V50H283.958V43.7L279.016 50H278.61V42.44H279.268V48.712L284.21 42.44ZM291.604 42.286C292.715 42.286 293.634 42.6593 294.362 43.406C295.09 44.1527 295.454 45.0907 295.454 46.22C295.454 47.3493 295.09 48.2873 294.362 49.034C293.634 49.7807 292.715 50.154 291.604 50.154C290.913 50.154 290.283 50 289.714 49.692C289.154 49.384 288.701 48.9593 288.356 48.418V52.674H287.67V42.44H288.174L288.314 44.092C288.659 43.532 289.117 43.0933 289.686 42.776C290.265 42.4493 290.904 42.286 291.604 42.286ZM291.548 49.482C292.481 49.482 293.251 49.174 293.858 48.558C294.465 47.942 294.768 47.1627 294.768 46.22C294.768 45.2773 294.465 44.498 293.858 43.882C293.251 43.266 292.481 42.958 291.548 42.958C290.633 42.958 289.868 43.2707 289.252 43.896C288.636 44.512 288.328 45.2867 288.328 46.22C288.328 47.1533 288.636 47.9327 289.252 48.558C289.868 49.174 290.633 49.482 291.548 49.482ZM301.184 50.154C300.054 50.154 299.112 49.7807 298.356 49.034C297.6 48.2873 297.222 47.3493 297.222 46.22C297.222 45.0907 297.595 44.1527 298.342 43.406C299.098 42.6593 300.04 42.286 301.17 42.286C302.308 42.286 303.251 42.6593 303.998 43.406C304.754 44.1527 305.132 45.0907 305.132 46.22C305.132 47.3493 304.754 48.2873 303.998 49.034C303.251 49.7807 302.313 50.154 301.184 50.154ZM301.184 49.482C301.8 49.482 302.355 49.342 302.85 49.062C303.344 48.782 303.732 48.3947 304.012 47.9C304.292 47.396 304.432 46.836 304.432 46.22C304.432 45.2773 304.124 44.498 303.508 43.882C302.892 43.266 302.117 42.958 301.184 42.958C300.558 42.958 299.998 43.098 299.504 43.378C299.009 43.658 298.622 44.05 298.342 44.554C298.062 45.0487 297.922 45.604 297.922 46.22C297.922 47.1533 298.23 47.9327 298.846 48.558C299.462 49.174 300.241 49.482 301.184 49.482ZM311.993 46.038C312.423 46.1687 312.763 46.402 313.015 46.738C313.277 47.074 313.407 47.4707 313.407 47.928C313.407 48.5253 313.193 49.02 312.763 49.412C312.334 49.804 311.793 50 311.139 50H307.541V42.44H311.111C311.513 42.44 311.867 42.5193 312.175 42.678C312.493 42.8367 312.735 43.0607 312.903 43.35C313.071 43.63 313.155 43.952 313.155 44.316C313.155 44.7173 313.048 45.072 312.833 45.38C312.628 45.688 312.348 45.9073 311.993 46.038ZM312.483 44.414C312.483 44.0127 312.348 43.6907 312.077 43.448C311.816 43.2053 311.466 43.084 311.027 43.084H308.213V45.744H311.027C311.466 45.744 311.816 45.6227 312.077 45.38C312.348 45.128 312.483 44.806 312.483 44.414ZM311.069 49.342C311.377 49.342 311.657 49.2813 311.909 49.16C312.161 49.0293 312.357 48.852 312.497 48.628C312.637 48.404 312.707 48.152 312.707 47.872C312.707 47.5827 312.637 47.326 312.497 47.102C312.357 46.8687 312.161 46.6913 311.909 46.57C311.657 46.4393 311.373 46.374 311.055 46.374H308.213V49.342H311.069ZM322.581 42.44H323.141V50H322.553L322.483 48.362C322.147 48.922 321.69 49.3607 321.111 49.678C320.542 49.9953 319.903 50.154 319.193 50.154C318.083 50.154 317.159 49.7807 316.421 49.034C315.684 48.278 315.315 47.34 315.315 46.22C315.315 45.1 315.684 44.1667 316.421 43.42C317.159 42.664 318.083 42.286 319.193 42.286C319.903 42.286 320.542 42.4493 321.111 42.776C321.69 43.0933 322.147 43.532 322.483 44.092L322.581 42.44ZM319.235 49.482C319.842 49.482 320.388 49.342 320.873 49.062C321.368 48.782 321.751 48.3947 322.021 47.9C322.301 47.396 322.441 46.836 322.441 46.22C322.441 45.2773 322.138 44.498 321.531 43.882C320.925 43.266 320.159 42.958 319.235 42.958C318.311 42.958 317.541 43.2707 316.925 43.896C316.319 44.512 316.015 45.2867 316.015 46.22C316.015 47.1533 316.319 47.9327 316.925 48.558C317.541 49.174 318.311 49.482 319.235 49.482ZM331.656 42.44H332.328V50H331.656V46.416H326.868V50H326.196V42.44H326.868V45.758H331.656V42.44ZM340.98 42.44H341.372V50H340.728V43.7L335.786 50H335.38V42.44H336.038V48.712L340.98 42.44ZM351.356 46.192C351.356 46.2573 351.351 46.346 351.342 46.458H344.482C344.519 47.046 344.673 47.5687 344.944 48.026C345.224 48.4833 345.597 48.8427 346.064 49.104C346.531 49.356 347.049 49.482 347.618 49.482C348.234 49.482 348.78 49.3373 349.256 49.048C349.741 48.7493 350.124 48.334 350.404 47.802H351.132C350.787 48.558 350.311 49.1413 349.704 49.552C349.097 49.9533 348.402 50.154 347.618 50.154C346.526 50.154 345.616 49.7807 344.888 49.034C344.16 48.278 343.796 47.3353 343.796 46.206C343.796 45.0953 344.16 44.1667 344.888 43.42C345.625 42.664 346.535 42.286 347.618 42.286C348.71 42.286 349.606 42.6593 350.306 43.406C351.006 44.1527 351.356 45.0813 351.356 46.192ZM347.618 42.944C346.778 42.944 346.069 43.2147 345.49 43.756C344.911 44.288 344.58 44.974 344.496 45.814H350.684C350.647 45.394 350.539 45.0067 350.362 44.652C350.194 44.288 349.975 43.98 349.704 43.728C349.433 43.476 349.116 43.2847 348.752 43.154C348.397 43.014 348.019 42.944 347.618 42.944Z" fill="black"/>
</svg>
