<svg width="386" height="87" viewBox="0 0 386 87" fill="none" xmlns="http://www.w3.org/2000/svg">
<path d="M15.0515 21.5014C10.3816 21.5014 6.70602 20.5491 4.02355 18.6427C1.34209 16.7367 0 14.2876 0 11.2946V30.9998H32.6582V21.5014H15.0515Z" fill="#FF512D"/>
<path d="M10.2474 8.08096C9.22279 8.80572 8.70947 9.71931 8.70947 10.8216C8.70947 11.8931 9.22279 12.7758 10.2474 13.4675C11.2733 14.1609 12.5596 14.5074 14.1051 14.5074H32.6584V6.9939H14.1051C12.5596 6.9939 11.2733 7.35636 10.2474 8.08096Z" fill="#F2F2F2"/>
<path d="M60.1099 14.5074C61.6555 14.5074 62.9417 14.1609 63.9676 13.4675C64.9922 12.7758 65.5055 11.8929 65.5055 10.8218C65.5055 9.71948 64.9922 8.80589 63.9676 8.08096C62.9417 7.35636 61.6555 6.9939 60.1099 6.9939H41.5566V14.5074H60.1099Z" fill="#999999"/>
<path d="M70.1911 18.6428C67.509 20.5493 63.8331 21.5014 59.1634 21.5014H41.5566V31H74.2147V11.2946C74.2147 14.2876 72.8729 16.7367 70.1911 18.6428Z" fill="#3FA9F5"/>
<path d="M4.04682 3.16615C6.74488 1.05561 10.4127 0 15.0515 0H0V11.2947C0 7.98639 1.34945 5.2772 4.04682 3.16615Z" fill="#333333"/>
<path d="M59.1631 0C63.8018 0 67.4693 1.05561 70.1675 3.16615C72.8651 5.2772 74.2144 7.98639 74.2144 11.2947V0H59.1631Z" fill="#FF512D"/>
<path d="M70.1677 3.16615C67.4696 1.05561 63.8021 0 59.1631 0H41.5566V6.99401H60.1096C61.6554 6.99401 62.9413 7.35647 63.9676 8.08106C64.9919 8.806 65.5052 9.71942 65.5052 10.822C65.5052 11.893 64.9919 12.7759 63.9676 13.4676C62.9413 14.161 61.6554 14.5075 60.1096 14.5075H41.5566V21.5015H59.1631C63.8329 21.5015 67.5087 20.5493 70.1908 18.6428C72.8729 16.7368 74.2145 14.2878 74.2145 11.2947C74.2145 7.98639 72.865 5.2772 70.1677 3.16615Z" fill="#333333"/>
<path d="M4.02355 18.6428C6.70602 20.5493 10.3816 21.5014 15.0515 21.5014H32.6582V14.5075H14.1051C12.5595 14.5075 11.2732 14.1608 10.2472 13.4676C9.22264 12.7757 8.70915 11.893 8.70915 10.8219C8.70915 9.7196 9.22264 8.806 10.2472 8.08089C11.2732 7.35665 12.5595 6.99401 14.1051 6.99401H32.6582V0H15.0515C10.4131 0 6.74522 1.05561 4.047 3.16598C1.34963 5.27721 0 7.98639 0 11.2946C0 14.2876 1.34192 16.7367 4.02355 18.6428Z" fill="#39B275"/>
<path d="M41.5562 14.5075V6.99401V0H32.6577V6.99401V14.5075V21.5015V31H41.5562V21.5015V14.5075Z" fill="#BFCFD9"/>
<path d="M160.255 21.2397C161.736 20.017 162.484 18.4713 162.484 16.6068C162.484 14.7406 161.736 13.197 160.255 11.974C158.766 10.751 156.907 10.1386 154.661 10.1386C152.421 10.1386 150.563 10.751 149.075 11.974C147.594 13.197 146.845 14.7406 146.845 16.6068C146.845 18.4713 147.594 20.017 149.075 21.2397C150.563 22.4628 152.421 23.0733 154.661 23.0733C156.907 23.0733 158.766 22.4628 160.255 21.2397ZM164.505 8.38305C167.055 10.4032 168.336 13.1462 168.336 16.6068C168.336 20.0693 167.055 22.8087 164.505 24.8292C161.95 26.8511 158.671 27.8622 154.661 27.8622C150.657 27.8622 147.378 26.8511 144.823 24.8292C142.275 22.8087 140.992 20.0693 140.992 16.6068C140.992 13.1462 142.275 10.4032 144.823 8.38305C147.378 6.36274 150.657 5.35156 154.661 5.35156C158.671 5.35156 161.95 6.36274 164.505 8.38305Z" fill="#373737"/>
<path d="M176.677 11.0102V15.9547H188.892C189.906 15.9547 190.75 15.7265 191.421 15.2697C192.102 14.815 192.436 14.2334 192.436 13.5287C192.436 12.802 192.102 12.2024 191.421 11.7259C190.75 11.2495 189.906 11.0102 188.892 11.0102H176.677ZM188.262 6.4082C191.318 6.4082 193.728 7.10392 195.501 8.49157C197.283 9.88128 198.168 11.6623 198.168 13.8402C198.168 15.8098 197.283 17.4204 195.519 18.6743C193.753 19.928 191.334 20.555 188.262 20.555H176.677V26.8041H170.824V6.4082H188.262Z" fill="#373737"/>
<path d="M222.873 11.0102H206.509V26.8041H200.657V6.4082H228.734V26.8041H222.873V11.0102Z" fill="#373737"/>
<path d="M239.286 11.0102V15.9547H251.49C252.506 15.9547 253.35 15.7265 254.029 15.2697C254.7 14.815 255.036 14.2334 255.036 13.5287C255.036 12.802 254.7 12.2024 254.029 11.7259C253.35 11.2495 252.506 11.0102 251.49 11.0102H239.286ZM250.869 6.4082C253.918 6.4082 256.337 7.10392 258.11 8.49157C259.883 9.88128 260.768 11.6623 260.768 13.8402C260.768 15.8098 259.89 17.4204 258.126 18.6743C256.363 19.928 253.943 20.555 250.869 20.555H239.286V26.8041H233.434V6.4082H250.869Z" fill="#373737"/>
<path d="M116.832 11.0102V15.9547H129.037C130.053 15.9547 130.895 15.7265 131.576 15.2697C132.248 14.815 132.583 14.2334 132.583 13.5287C132.583 12.802 132.248 12.2024 131.576 11.7259C130.895 11.2495 130.053 11.0102 129.037 11.0102H116.832ZM128.417 6.4082C131.463 6.4082 133.874 7.10392 135.656 8.49157C137.429 9.88128 138.316 11.6623 138.316 13.8402C138.316 15.8098 137.438 17.4204 135.674 18.6743C133.91 19.928 131.491 20.555 128.417 20.555H116.832V26.8041H110.979V6.4082H128.417Z" fill="#373737"/>
<path d="M98.7659 11.0102C97.7497 11.0102 96.906 11.2495 96.2274 11.7259C95.5559 12.2024 95.2201 12.802 95.2201 13.5287C95.2201 14.2334 95.5559 14.815 96.2274 15.2697C96.906 15.7265 97.7497 15.9547 98.7659 15.9547H110.979V11.0102H98.7659ZM116.832 6.4082V26.8041H110.979V20.555H99.3939C96.3217 20.555 93.9026 19.928 92.1386 18.6743C90.3729 17.4204 89.4873 15.8098 89.4873 13.8402C89.4873 11.6623 90.3729 9.88128 92.1477 8.49157C93.928 7.10392 96.3378 6.4082 99.3939 6.4082H116.832Z" fill="#373737"/>
<path d="M283.939 21.2397C285.42 20.017 286.169 18.4713 286.169 16.6068C286.169 14.7406 285.42 13.197 283.939 11.974C282.458 10.751 280.591 10.1386 278.353 10.1386C276.107 10.1386 274.248 10.751 272.758 11.974C271.278 13.197 270.537 14.7406 270.537 16.6068C270.537 18.4713 271.278 20.017 272.758 21.2397C274.248 22.4628 276.107 23.0733 278.353 23.0733C280.591 23.0733 282.458 22.4628 283.939 21.2397ZM288.191 8.38305C290.748 10.4032 292.022 13.1462 292.022 16.6068C292.022 20.0693 290.748 22.8087 288.191 24.8292C285.636 26.8511 282.355 27.8622 278.353 27.8622C274.341 27.8622 271.062 26.8511 268.507 24.8292C265.959 22.8087 264.676 20.0693 264.676 16.6068C264.676 13.1462 265.959 10.4032 268.507 8.38305C271.062 6.36274 274.341 5.35156 278.353 5.35156C282.355 5.35156 285.636 6.36274 288.191 8.38305Z" fill="#373737"/>
<path d="M322.645 14.5233V19.1255H301.162V22.2021H322.645V26.8041H295.31V6.4082H322.645V11.0102H301.162V14.5233H322.645Z" fill="#373737"/>
<path d="M328.816 6.4082H334.678V26.8041H328.816V6.4082Z" fill="#373737"/>
<path d="M386 6.4082V10.3888H375.251V26.8041H369.399V10.3888H358.648V6.4082H386Z" fill="#373737"/>
<path d="M356.032 6.4082H349.027L342.855 14.5233L334.591 14.4763V19.1255H343.405L349.027 26.8041H356.032L347.588 16.4511L356.032 6.4082Z" fill="#373737"/>
<path d="M9.728 61L8.432 57.944H2.512L1.216 61H0.352L5.056 49.8H5.792L10.608 61H9.728ZM5.44 50.936L2.816 57.192H8.112L5.44 50.936ZM17.4488 52.184C18.7181 52.184 19.7687 52.6107 20.6007 53.464C21.4328 54.3173 21.8488 55.3893 21.8488 56.68C21.8488 57.9707 21.4328 59.0427 20.6007 59.896C19.7687 60.7493 18.7181 61.176 17.4488 61.176C16.6594 61.176 15.9394 61 15.2887 60.648C14.6487 60.296 14.1314 59.8107 13.7367 59.192V64.056H12.9527V52.36H13.5287L13.6887 54.248C14.0834 53.608 14.6061 53.1067 15.2567 52.744C15.9181 52.3707 16.6487 52.184 17.4488 52.184ZM17.3847 60.408C18.4514 60.408 19.3314 60.056 20.0247 59.352C20.7181 58.648 21.0647 57.7573 21.0647 56.68C21.0647 55.6027 20.7181 54.712 20.0247 54.008C19.3314 53.304 18.4514 52.952 17.3847 52.952C16.3394 52.952 15.4647 53.3093 14.7607 54.024C14.0567 54.728 13.7047 55.6133 13.7047 56.68C13.7047 57.7467 14.0567 58.6373 14.7607 59.352C15.4647 60.056 16.3394 60.408 17.3847 60.408ZM30.6419 61H29.7459L26.8339 57L23.9379 61H23.0579L26.3699 56.488L23.3619 52.36H24.2579L26.8499 55.928L29.4579 52.36H30.3379L27.3139 56.456L30.6419 61ZM39.1878 52.36H39.6358V61H38.8998V53.8L33.2518 61H32.7878V52.36H33.5398V59.528L39.1878 52.36ZM49.5747 52.36V53.08H46.1187V61H45.3507V53.08H41.9107V52.36H49.5747ZM59.3861 56.648C59.3861 56.7227 59.3808 56.824 59.3701 56.952H51.5301C51.5728 57.624 51.7488 58.2213 52.0581 58.744C52.3781 59.2667 52.8048 59.6773 53.3381 59.976C53.8715 60.264 54.4635 60.408 55.1141 60.408C55.8181 60.408 56.4421 60.2427 56.9861 59.912C57.5408 59.5707 57.9781 59.096 58.2981 58.488H59.1301C58.7355 59.352 58.1915 60.0187 57.4981 60.488C56.8048 60.9467 56.0101 61.176 55.1141 61.176C53.8661 61.176 52.8261 60.7493 51.9941 59.896C51.1621 59.032 50.7461 57.9547 50.7461 56.664C50.7461 55.3947 51.1621 54.3333 51.9941 53.48C52.8368 52.616 53.8768 52.184 55.1141 52.184C56.3621 52.184 57.3861 52.6107 58.1861 53.464C58.9861 54.3173 59.3861 55.3787 59.3861 56.648ZM55.1141 52.936C54.1541 52.936 53.3435 53.2453 52.6821 53.864C52.0208 54.472 51.6421 55.256 51.5461 56.216H58.6181C58.5755 55.736 58.4528 55.2933 58.2501 54.888C58.0581 54.472 57.8075 54.12 57.4981 53.832C57.1888 53.544 56.8261 53.3253 56.4101 53.176C56.0048 53.016 55.5728 52.936 55.1141 52.936ZM67.8468 61L64.3908 56.856H62.8868V61H62.1028V52.36H62.8868V56.12H64.4068L67.5588 52.36H68.5188L65.0788 56.488L68.8228 61H67.8468ZM77.2804 52.36V53.08H73.8244V61H73.0564V53.08H69.6164V52.36H77.2804ZM86.0755 52.36H86.9235L82.6035 61.624C82.1768 62.552 81.7395 63.1867 81.2915 63.528C80.8435 63.88 80.2515 64.056 79.5155 64.056H78.7955V63.352H79.4515C80.0488 63.352 80.5128 63.224 80.8435 62.968C81.1848 62.712 81.5315 62.2 81.8835 61.432L82.3475 60.488L78.3795 52.36H79.2275L82.7635 59.608L86.0755 52.36ZM93.7419 52.184C95.0112 52.184 96.0619 52.6107 96.8939 53.464C97.7259 54.3173 98.1419 55.3893 98.1419 56.68C98.1419 57.9707 97.7259 59.0427 96.8939 59.896C96.0619 60.7493 95.0112 61.176 93.7419 61.176C92.9525 61.176 92.2325 61 91.5819 60.648C90.9419 60.296 90.4245 59.8107 90.0299 59.192V64.056H89.2459V52.36H89.8219L89.9819 54.248C90.3765 53.608 90.8992 53.1067 91.5499 52.744C92.2112 52.3707 92.9419 52.184 93.7419 52.184ZM93.6779 60.408C94.7445 60.408 95.6245 60.056 96.3179 59.352C97.0112 58.648 97.3579 57.7573 97.3579 56.68C97.3579 55.6027 97.0112 54.712 96.3179 54.008C95.6245 53.304 94.7445 52.952 93.6779 52.952C92.6325 52.952 91.7579 53.3093 91.0539 54.024C90.3499 54.728 89.9979 55.6133 89.9979 56.68C89.9979 57.7467 90.3499 58.6373 91.0539 59.352C91.7579 60.056 92.6325 60.408 93.6779 60.408ZM107.138 52.36H107.906V61H107.138V56.904H101.666V61H100.898V52.36H101.666V56.152H107.138V52.36ZM115.185 61.176C113.895 61.176 112.817 60.7493 111.953 59.896C111.089 59.0427 110.657 57.9707 110.657 56.68C110.657 55.3893 111.084 54.3173 111.937 53.464C112.801 52.6107 113.879 52.184 115.169 52.184C116.471 52.184 117.548 52.6107 118.401 53.464C119.265 54.3173 119.697 55.3893 119.697 56.68C119.697 57.9707 119.265 59.0427 118.401 59.896C117.548 60.7493 116.476 61.176 115.185 61.176ZM115.185 60.408C115.889 60.408 116.524 60.248 117.089 59.928C117.655 59.608 118.097 59.1653 118.417 58.6C118.737 58.024 118.897 57.384 118.897 56.68C118.897 55.6027 118.545 54.712 117.841 54.008C117.137 53.304 116.252 52.952 115.185 52.952C114.471 52.952 113.831 53.112 113.265 53.432C112.7 53.752 112.257 54.2 111.937 54.776C111.617 55.3413 111.457 55.976 111.457 56.68C111.457 57.7467 111.809 58.6373 112.513 59.352C113.217 60.056 114.108 60.408 115.185 60.408ZM122.116 56.92V56.168H127.124V56.92H122.116ZM133.987 61.176C132.729 61.176 131.673 60.7493 130.819 59.896C129.966 59.032 129.539 57.96 129.539 56.68C129.539 55.3893 129.961 54.3173 130.803 53.464C131.657 52.6107 132.718 52.184 133.987 52.184C134.958 52.184 135.806 52.4453 136.531 52.968C137.267 53.48 137.779 54.168 138.067 55.032H137.283C136.995 54.3813 136.558 53.8747 135.971 53.512C135.395 53.1387 134.734 52.952 133.987 52.952C132.942 52.952 132.073 53.3093 131.379 54.024C130.686 54.728 130.339 55.6133 130.339 56.68C130.339 57.736 130.686 58.6213 131.379 59.336C132.083 60.0507 132.953 60.408 133.987 60.408C134.723 60.408 135.379 60.2267 135.955 59.864C136.542 59.4907 136.99 58.968 137.299 58.296H138.099C137.79 59.1813 137.267 59.8853 136.531 60.408C135.795 60.92 134.947 61.176 133.987 61.176ZM146.953 52.36V53.08H143.497V61H142.729V53.08H139.289V52.36H146.953ZM153.7 52.184C154.969 52.184 156.02 52.6107 156.852 53.464C157.684 54.3173 158.1 55.3893 158.1 56.68C158.1 57.9707 157.684 59.0427 156.852 59.896C156.02 60.7493 154.969 61.176 153.7 61.176C152.911 61.176 152.191 61 151.54 60.648C150.9 60.296 150.383 59.8107 149.988 59.192V64.056H149.204V52.36H149.78L149.94 54.248C150.335 53.608 150.857 53.1067 151.508 52.744C152.169 52.3707 152.9 52.184 153.7 52.184ZM153.636 60.408C154.703 60.408 155.583 60.056 156.276 59.352C156.969 58.648 157.316 57.7573 157.316 56.68C157.316 55.6027 156.969 54.712 156.276 54.008C155.583 53.304 154.703 52.952 153.636 52.952C152.591 52.952 151.716 53.3093 151.012 54.024C150.308 54.728 149.956 55.6133 149.956 56.68C149.956 57.7467 150.308 58.6373 151.012 59.352C151.716 60.056 152.591 60.408 153.636 60.408ZM164.648 61.176C163.357 61.176 162.28 60.7493 161.416 59.896C160.552 59.0427 160.12 57.9707 160.12 56.68C160.12 55.3893 160.547 54.3173 161.4 53.464C162.264 52.6107 163.341 52.184 164.632 52.184C165.933 52.184 167.011 52.6107 167.864 53.464C168.728 54.3173 169.16 55.3893 169.16 56.68C169.16 57.9707 168.728 59.0427 167.864 59.896C167.011 60.7493 165.939 61.176 164.648 61.176ZM164.648 60.408C165.352 60.408 165.987 60.248 166.552 59.928C167.117 59.608 167.56 59.1653 167.88 58.6C168.2 58.024 168.36 57.384 168.36 56.68C168.36 55.6027 168.008 54.712 167.304 54.008C166.6 53.304 165.715 52.952 164.648 52.952C163.933 52.952 163.293 53.112 162.728 53.432C162.163 53.752 161.72 54.2 161.4 54.776C161.08 55.3413 160.92 55.976 160.92 56.68C160.92 57.7467 161.272 58.6373 161.976 59.352C162.68 60.056 163.571 60.408 164.648 60.408ZM178.314 52.36H178.762V61H178.026V53.8L172.378 61H171.914V52.36H172.666V59.528L178.314 52.36ZM188.701 52.36V53.08H185.245V61H184.477V53.08H181.037V52.36H188.701ZM198.512 56.648C198.512 56.7227 198.507 56.824 198.496 56.952H190.656C190.699 57.624 190.875 58.2213 191.184 58.744C191.504 59.2667 191.931 59.6773 192.464 59.976C192.998 60.264 193.59 60.408 194.24 60.408C194.944 60.408 195.568 60.2427 196.112 59.912C196.667 59.5707 197.104 59.096 197.424 58.488H198.256C197.862 59.352 197.318 60.0187 196.624 60.488C195.931 60.9467 195.136 61.176 194.24 61.176C192.992 61.176 191.952 60.7493 191.12 59.896C190.288 59.032 189.872 57.9547 189.872 56.664C189.872 55.3947 190.288 54.3333 191.12 53.48C191.963 52.616 193.003 52.184 194.24 52.184C195.488 52.184 196.512 52.6107 197.312 53.464C198.112 54.3173 198.512 55.3787 198.512 56.648ZM194.24 52.936C193.28 52.936 192.47 53.2453 191.808 53.864C191.147 54.472 190.768 55.256 190.672 56.216H197.744C197.702 55.736 197.579 55.2933 197.376 54.888C197.184 54.472 196.934 54.12 196.624 53.832C196.315 53.544 195.952 53.3253 195.536 53.176C195.131 53.016 194.699 52.936 194.24 52.936ZM202.371 52.36H207.699V61H206.931V53.048H203.043L202.483 58.168C202.376 59.2133 202.12 59.9493 201.715 60.376C201.309 60.8027 200.685 61.016 199.843 61.016H199.699V60.28H199.875C200.461 60.28 200.893 60.1253 201.171 59.816C201.459 59.496 201.645 58.9573 201.731 58.2L202.371 52.36ZM214.569 55.352C215.412 55.352 216.11 55.6187 216.665 56.152C217.22 56.6747 217.497 57.352 217.497 58.184C217.497 59.016 217.22 59.6933 216.665 60.216C216.11 60.7387 215.412 61 214.569 61H211.209V52.36H211.977V55.352H214.569ZM214.473 60.296C215.124 60.296 215.657 60.0987 216.073 59.704C216.489 59.3093 216.697 58.8027 216.697 58.184C216.697 57.5653 216.489 57.0587 216.073 56.664C215.657 56.2587 215.124 56.056 214.473 56.056H211.977V60.296H214.473ZM226.273 52.36H227.041V61H226.273V56.904H220.801V61H220.033V52.36H220.801V56.152H226.273V52.36ZM234.32 61.176C233.03 61.176 231.952 60.7493 231.088 59.896C230.224 59.0427 229.792 57.9707 229.792 56.68C229.792 55.3893 230.219 54.3173 231.072 53.464C231.936 52.6107 233.014 52.184 234.304 52.184C235.606 52.184 236.683 52.6107 237.536 53.464C238.4 54.3173 238.832 55.3893 238.832 56.68C238.832 57.9707 238.4 59.0427 237.536 59.896C236.683 60.7493 235.611 61.176 234.32 61.176ZM234.32 60.408C235.024 60.408 235.659 60.248 236.224 59.928C236.79 59.608 237.232 59.1653 237.552 58.6C237.872 58.024 238.032 57.384 238.032 56.68C238.032 55.6027 237.68 54.712 236.976 54.008C236.272 53.304 235.387 52.952 234.32 52.952C233.606 52.952 232.966 53.112 232.4 53.432C231.835 53.752 231.392 54.2 231.072 54.776C230.752 55.3413 230.592 55.976 230.592 56.68C230.592 57.7467 230.944 58.6373 231.648 59.352C232.352 60.056 233.243 60.408 234.32 60.408ZM249.491 56.648C249.491 56.7227 249.485 56.824 249.475 56.952H241.635C241.677 57.624 241.853 58.2213 242.163 58.744C242.483 59.2667 242.909 59.6773 243.443 59.976C243.976 60.264 244.568 60.408 245.219 60.408C245.923 60.408 246.547 60.2427 247.091 59.912C247.645 59.5707 248.083 59.096 248.403 58.488H249.235C248.84 59.352 248.296 60.0187 247.603 60.488C246.909 60.9467 246.115 61.176 245.219 61.176C243.971 61.176 242.931 60.7493 242.099 59.896C241.267 59.032 240.851 57.9547 240.851 56.664C240.851 55.3947 241.267 54.3333 242.099 53.48C242.941 52.616 243.981 52.184 245.219 52.184C246.467 52.184 247.491 52.6107 248.291 53.464C249.091 54.3173 249.491 55.3787 249.491 56.648ZM245.219 52.936C244.259 52.936 243.448 53.2453 242.787 53.864C242.125 54.472 241.747 55.256 241.651 56.216H248.723C248.68 55.736 248.557 55.2933 248.355 54.888C248.163 54.472 247.912 54.12 247.603 53.832C247.293 53.544 246.931 53.3253 246.515 53.176C246.109 53.016 245.677 52.936 245.219 52.936ZM1.504 72.36H8.576V81H7.792V73.08H2.288V81H1.504V72.36ZM16.5581 72.184C17.8275 72.184 18.8781 72.6107 19.7101 73.464C20.5421 74.3173 20.9581 75.3893 20.9581 76.68C20.9581 77.9707 20.5421 79.0427 19.7101 79.896C18.8781 80.7493 17.8275 81.176 16.5581 81.176C15.7688 81.176 15.0488 81 14.3981 80.648C13.7581 80.296 13.2408 79.8107 12.8461 79.192V84.056H12.0621V72.36H12.6381L12.7981 74.248C13.1928 73.608 13.7155 73.1067 14.3661 72.744C15.0275 72.3707 15.7581 72.184 16.5581 72.184ZM16.4941 80.408C17.5608 80.408 18.4408 80.056 19.1341 79.352C19.8275 78.648 20.1741 77.7573 20.1741 76.68C20.1741 75.6027 19.8275 74.712 19.1341 74.008C18.4408 73.304 17.5608 72.952 16.4941 72.952C15.4488 72.952 14.5741 73.3093 13.8701 74.024C13.1661 74.728 12.8141 75.6133 12.8141 76.68C12.8141 77.7467 13.1661 78.6373 13.8701 79.352C14.5741 80.056 15.4488 80.408 16.4941 80.408ZM27.506 81.176C26.2153 81.176 25.138 80.7493 24.274 79.896C23.41 79.0427 22.978 77.9707 22.978 76.68C22.978 75.3893 23.4047 74.3173 24.258 73.464C25.122 72.6107 26.1993 72.184 27.49 72.184C28.7913 72.184 29.8687 72.6107 30.722 73.464C31.586 74.3173 32.018 75.3893 32.018 76.68C32.018 77.9707 31.586 79.0427 30.722 79.896C29.8687 80.7493 28.7967 81.176 27.506 81.176ZM27.506 80.408C28.21 80.408 28.8447 80.248 29.41 79.928C29.9753 79.608 30.418 79.1653 30.738 78.6C31.058 78.024 31.218 77.384 31.218 76.68C31.218 75.6027 30.866 74.712 30.162 74.008C29.458 73.304 28.5727 72.952 27.506 72.952C26.7913 72.952 26.1513 73.112 25.586 73.432C25.0207 73.752 24.578 74.2 24.258 74.776C23.938 75.3413 23.778 75.976 23.778 76.68C23.778 77.7467 24.13 78.6373 24.834 79.352C25.538 80.056 26.4287 80.408 27.506 80.408ZM42.6761 76.648C42.6761 76.7227 42.6708 76.824 42.6601 76.952H34.8201C34.8628 77.624 35.0388 78.2213 35.3481 78.744C35.6681 79.2667 36.0948 79.6773 36.6281 79.976C37.1615 80.264 37.7535 80.408 38.4041 80.408C39.1081 80.408 39.7321 80.2427 40.2761 79.912C40.8308 79.5707 41.2681 79.096 41.5881 78.488H42.4201C42.0255 79.352 41.4815 80.0187 40.7881 80.488C40.0948 80.9467 39.3001 81.176 38.4041 81.176C37.1561 81.176 36.1161 80.7493 35.2841 79.896C34.4521 79.032 34.0361 77.9547 34.0361 76.664C34.0361 75.3947 34.4521 74.3333 35.2841 73.48C36.1268 72.616 37.1668 72.184 38.4041 72.184C39.6521 72.184 40.6761 72.6107 41.4761 73.464C42.2761 74.3173 42.6761 75.3787 42.6761 76.648ZM38.4041 72.936C37.4441 72.936 36.6335 73.2453 35.9721 73.864C35.3108 74.472 34.9321 75.256 34.8361 76.216H41.9081C41.8655 75.736 41.7428 75.2933 41.5401 74.888C41.3481 74.472 41.0975 74.12 40.7881 73.832C40.4788 73.544 40.1161 73.3253 39.7001 73.176C39.2948 73.016 38.8628 72.936 38.4041 72.936ZM51.1367 81L47.6807 76.856H46.1767V81H45.3927V72.36H46.1767V76.12H47.6967L50.8487 72.36H51.8087L48.3687 76.488L52.1127 81H51.1367ZM60.5704 72.36V73.08H57.1144V81H56.3464V73.08H52.9064V72.36H60.5704ZM69.2215 72.36H69.6695V81H68.9335V73.8L63.2855 81H62.8215V72.36H63.5735V79.528L69.2215 72.36ZM77.6725 72.184C78.9418 72.184 79.9925 72.6107 80.8245 73.464C81.6565 74.3173 82.0725 75.3893 82.0725 76.68C82.0725 77.9707 81.6565 79.0427 80.8245 79.896C79.9925 80.7493 78.9418 81.176 77.6725 81.176C76.8832 81.176 76.1632 81 75.5125 80.648C74.8725 80.296 74.3552 79.8107 73.9605 79.192V84.056H73.1765V72.36H73.7525L73.9125 74.248C74.3072 73.608 74.8298 73.1067 75.4805 72.744C76.1418 72.3707 76.8725 72.184 77.6725 72.184ZM77.6085 80.408C78.6752 80.408 79.5552 80.056 80.2485 79.352C80.9418 78.648 81.2885 77.7573 81.2885 76.68C81.2885 75.6027 80.9418 74.712 80.2485 74.008C79.5552 73.304 78.6752 72.952 77.6085 72.952C76.5632 72.952 75.6885 73.3093 74.9845 74.024C74.2805 74.728 73.9285 75.6133 73.9285 76.68C73.9285 77.7467 74.2805 78.6373 74.9845 79.352C75.6885 80.056 76.5632 80.408 77.6085 80.408ZM88.6204 81.176C87.3297 81.176 86.2524 80.7493 85.3884 79.896C84.5244 79.0427 84.0924 77.9707 84.0924 76.68C84.0924 75.3893 84.519 74.3173 85.3724 73.464C86.2364 72.6107 87.3137 72.184 88.6044 72.184C89.9057 72.184 90.983 72.6107 91.8364 73.464C92.7004 74.3173 93.1324 75.3893 93.1324 76.68C93.1324 77.9707 92.7004 79.0427 91.8364 79.896C90.983 80.7493 89.911 81.176 88.6204 81.176ZM88.6204 80.408C89.3244 80.408 89.959 80.248 90.5244 79.928C91.0897 79.608 91.5324 79.1653 91.8524 78.6C92.1724 78.024 92.3324 77.384 92.3324 76.68C92.3324 75.6027 91.9804 74.712 91.2764 74.008C90.5724 73.304 89.687 72.952 88.6204 72.952C87.9057 72.952 87.2657 73.112 86.7004 73.432C86.135 73.752 85.6924 74.2 85.3724 74.776C85.0524 75.3413 84.8924 75.976 84.8924 76.68C84.8924 77.7467 85.2444 78.6373 85.9484 79.352C86.6524 80.056 87.543 80.408 88.6204 80.408ZM100.975 76.472C101.465 76.6213 101.855 76.888 102.142 77.272C102.441 77.656 102.59 78.1093 102.59 78.632C102.59 79.3147 102.345 79.88 101.854 80.328C101.364 80.776 100.745 81 99.9985 81H95.8865V72.36H99.9665C100.425 72.36 100.83 72.4507 101.182 72.632C101.545 72.8133 101.823 73.0693 102.015 73.4C102.207 73.72 102.303 74.088 102.303 74.504C102.303 74.9627 102.18 75.368 101.935 75.72C101.7 76.072 101.38 76.3227 100.975 76.472ZM101.535 74.616C101.535 74.1573 101.38 73.7893 101.07 73.512C100.772 73.2347 100.372 73.096 99.8705 73.096H96.6545V76.136H99.8705C100.372 76.136 100.772 75.9973 101.07 75.72C101.38 75.432 101.535 75.064 101.535 74.616ZM99.9185 80.248C100.27 80.248 100.59 80.1787 100.878 80.04C101.167 79.8907 101.391 79.688 101.55 79.432C101.711 79.176 101.791 78.888 101.791 78.568C101.791 78.2373 101.711 77.944 101.55 77.688C101.391 77.4213 101.167 77.2187 100.878 77.08C100.59 76.9307 100.265 76.856 99.9025 76.856H96.6545V80.248H99.9185ZM113.075 72.36H113.715V81H113.043L112.963 79.128C112.579 79.768 112.056 80.2693 111.395 80.632C110.744 80.9947 110.014 81.176 109.203 81.176C107.934 81.176 106.878 80.7493 106.035 79.896C105.192 79.032 104.771 77.96 104.771 76.68C104.771 75.4 105.192 74.3333 106.035 73.48C106.878 72.616 107.934 72.184 109.203 72.184C110.014 72.184 110.744 72.3707 111.395 72.744C112.056 73.1067 112.579 73.608 112.963 74.248L113.075 72.36ZM109.251 80.408C109.944 80.408 110.568 80.248 111.123 79.928C111.688 79.608 112.126 79.1653 112.435 78.6C112.755 78.024 112.915 77.384 112.915 76.68C112.915 75.6027 112.568 74.712 111.875 74.008C111.182 73.304 110.307 72.952 109.251 72.952C108.195 72.952 107.315 73.3093 106.611 74.024C105.918 74.728 105.571 75.6133 105.571 76.68C105.571 77.7467 105.918 78.6373 106.611 79.352C107.315 80.056 108.195 80.408 109.251 80.408ZM123.446 72.36H124.214V81H123.446V76.904H117.974V81H117.206V72.36H117.974V76.152H123.446V72.36ZM134.102 72.36H134.55V81H133.814V73.8L128.166 81H127.702V72.36H128.454V79.528L134.102 72.36ZM145.961 76.648C145.961 76.7227 145.955 76.824 145.945 76.952H138.105C138.147 77.624 138.323 78.2213 138.633 78.744C138.953 79.2667 139.379 79.6773 139.913 79.976C140.446 80.264 141.038 80.408 141.689 80.408C142.393 80.408 143.017 80.2427 143.561 79.912C144.115 79.5707 144.553 79.096 144.873 78.488H145.705C145.31 79.352 144.766 80.0187 144.073 80.488C143.379 80.9467 142.585 81.176 141.689 81.176C140.441 81.176 139.401 80.7493 138.569 79.896C137.737 79.032 137.321 77.9547 137.321 76.664C137.321 75.3947 137.737 74.3333 138.569 73.48C139.411 72.616 140.451 72.184 141.689 72.184C142.937 72.184 143.961 72.6107 144.761 73.464C145.561 74.3173 145.961 75.3787 145.961 76.648ZM141.689 72.936C140.729 72.936 139.918 73.2453 139.257 73.864C138.595 74.472 138.217 75.256 138.121 76.216H145.193C145.15 75.736 145.027 75.2933 144.825 74.888C144.633 74.472 144.382 74.12 144.073 73.832C143.763 73.544 143.401 73.3253 142.985 73.176C142.579 73.016 142.147 72.936 141.689 72.936Z" fill="black"/>
</svg>
