<svg width="32" height="32" viewBox="0 0 32 32" fill="none" xmlns="http://www.w3.org/2000/svg">
<path fill-rule="evenodd" clip-rule="evenodd" d="M15.6667 1C7.56627 1 1 7.56627 1 15.6667C1 18.4387 1.77 21.0347 3.10907 23.2464L1.8008 27.6934C1.72568 27.9487 1.72074 28.2195 1.78649 28.4774C1.85224 28.7353 1.98626 28.9707 2.17445 29.1589C2.36264 29.3471 2.59805 29.4811 2.85595 29.5469C3.11384 29.6126 3.38468 29.6077 3.64 29.5326L8.08694 28.2243C10.373 29.6075 12.9947 30.337 15.6667 30.3334C23.7671 30.3334 30.3334 23.7671 30.3334 15.6667C30.3334 7.56627 23.7671 1 15.6667 1ZM12.3491 18.9857C15.3161 21.9514 18.1483 22.343 19.1485 22.3796C20.6695 22.4354 22.1508 21.2738 22.7272 19.9259C22.8 19.7582 22.8264 19.5741 22.8037 19.3927C22.781 19.2113 22.71 19.0394 22.5982 18.8948C21.7944 17.8681 20.7076 17.1304 19.6458 16.3971C19.424 16.2438 19.1516 16.1823 18.8855 16.2255C18.6195 16.2687 18.3805 16.4132 18.2187 16.6288L17.3387 17.9708C17.2924 18.043 17.2203 18.0947 17.1372 18.1154C17.054 18.1361 16.9661 18.1243 16.8913 18.0823C16.2944 17.7405 15.4247 17.1597 14.7999 16.5349C14.1751 15.9101 13.6295 15.08 13.3229 14.5212C13.2849 14.4502 13.274 14.3679 13.292 14.2894C13.3101 14.2109 13.356 14.1416 13.4212 14.0944L14.7764 13.0883C14.9698 12.9201 15.0946 12.6867 15.1271 12.4325C15.1595 12.1783 15.0974 11.921 14.9524 11.7096C14.2953 10.7475 13.5297 9.52427 12.4195 8.71321C12.2762 8.60937 12.1083 8.54463 11.9324 8.52534C11.7565 8.50605 11.5787 8.53289 11.4163 8.60321C10.0669 9.18107 8.89947 10.6624 8.95521 12.1863C8.99187 13.1865 9.38347 16.0187 12.3491 18.9857Z" fill="#39B275"/>
</svg>
