<svg width="77" height="32" viewBox="0 0 77 32" fill="none" xmlns="http://www.w3.org/2000/svg">
<path d="M15.5367 22.1946C10.7163 22.1946 6.92221 21.2116 4.15325 19.2437C1.38536 17.2763 0 14.7482 0 11.6587V31.9992H33.711V22.1946H15.5367Z" fill="#FF512D"/>
<path d="M10.578 8.34232C9.52035 9.09044 8.99048 10.0335 8.99048 11.1713C8.99048 12.2773 9.52035 13.1885 10.578 13.9025C11.637 14.6182 12.9648 14.976 14.56 14.976H33.7114V7.22021H14.56C12.9648 7.22021 11.637 7.59437 10.578 8.34232Z" fill="#F2F2F2"/>
<path d="M62.0476 14.976C63.6431 14.976 64.9707 14.6182 66.0297 13.9025C67.0873 13.1885 67.6172 12.2772 67.6172 11.1715C67.6172 10.0337 67.0873 9.09062 66.0297 8.34232C64.9707 7.59437 63.6431 7.22021 62.0476 7.22021H42.8962V14.976H62.0476Z" fill="#999999"/>
<path d="M72.4538 19.2439C69.6852 21.2118 65.8908 22.1946 61.0706 22.1946H42.8962V31.9994H76.6071V11.6587C76.6071 14.7482 75.2221 17.2763 72.4538 19.2439Z" fill="#3FA9F5"/>
<path d="M4.17741 3.26822C6.96244 1.08964 10.7485 0 15.5368 0H0.00012207V11.6588C0.00012207 8.24385 1.39308 5.44733 4.17741 3.26822Z" fill="#333333"/>
<path d="M61.0703 0.000488281C65.8586 0.000488281 69.6443 1.09013 72.4295 3.26871C75.214 5.44782 76.6068 8.24434 76.6068 11.6593V0.000488281H61.0703Z" fill="#FF512D"/>
<path d="M72.4299 3.26871C69.6448 1.09013 65.8591 0.000488281 61.0705 0.000488281H42.8965V7.21996H62.0475C63.6431 7.21996 64.9706 7.59412 66.0299 8.34207C67.0872 9.09037 67.6171 10.0332 67.6171 11.1714C67.6171 12.2769 67.0872 13.1882 66.0299 13.9023C64.9706 14.618 63.6431 14.9757 62.0475 14.9757H42.8965V22.1952H61.0705C65.8909 22.1952 69.6851 21.2123 72.4537 19.2443C75.2223 17.2769 76.6072 14.7489 76.6072 11.6593C76.6072 8.24434 75.2142 5.44782 72.4299 3.26871Z" fill="#333333"/>
<path d="M4.15325 19.2438C6.92221 21.2118 10.7163 22.1945 15.5367 22.1945H33.711V14.9752H14.5598C12.9644 14.9752 11.6366 14.6173 10.5776 13.9018C9.51996 13.1876 8.98991 12.2764 8.98991 11.1707C8.98991 10.0329 9.51996 9.08988 10.5776 8.3414C11.6366 7.59381 12.9644 7.21948 14.5598 7.21948H33.711V0H15.5367C10.7488 0 6.96267 1.08964 4.17746 3.26804C1.39313 5.44733 0 8.24385 0 11.6587C0 14.7482 1.38518 17.2762 4.15325 19.2438Z" fill="#39B275"/>
<path d="M42.896 14.9757V7.21996V0.000488281H33.7107V7.21996V14.9757V22.1952V31.9999H42.896V22.1952V14.9757Z" fill="#BFCFD9"/>
</svg>
